<mxfile host="app.diagrams.net" agent="Mozilla/5.0 (Windows NT 10.0; Win64; x64; rv:131.0) Gecko/20100101 Firefox/131.0" version="24.7.17">
  <diagram name="Page-1" id="lG33fy6lgzviTLGGAwZQ">
    <mxGraphModel dx="1195" dy="652" grid="1" gridSize="10" guides="1" tooltips="1" connect="1" arrows="1" fold="1" page="1" pageScale="1" pageWidth="850" pageHeight="1100" math="0" shadow="0">
      <root>
        <mxCell id="0" />
        <mxCell id="1" parent="0" />
        <mxCell id="HjT6Npaup9nZn42_z8Ke-13" value="" style="html=1;verticalAlign=bottom;endArrow=block;curved=0;rounded=0;exitX=0.088;exitY=0.486;exitDx=0;exitDy=0;exitPerimeter=0;" parent="1" source="HjT6Npaup9nZn42_z8Ke-14" target="HjT6Npaup9nZn42_z8Ke-63" edge="1">
          <mxGeometry width="80" relative="1" as="geometry">
            <mxPoint x="285" y="604.5" as="sourcePoint" />
            <mxPoint x="285" y="614.5" as="targetPoint" />
          </mxGeometry>
        </mxCell>
        <mxCell id="HjT6Npaup9nZn42_z8Ke-14" value="" style="line;strokeWidth=1;fillColor=none;align=left;verticalAlign=middle;spacingTop=-1;spacingLeft=3;spacingRight=3;rotatable=0;labelPosition=right;points=[];portConstraint=eastwest;strokeColor=inherit;" parent="1" vertex="1">
          <mxGeometry x="115" y="608" width="170" height="8" as="geometry" />
        </mxCell>
        <mxCell id="HjT6Npaup9nZn42_z8Ke-16" value="" style="endArrow=none;html=1;rounded=0;entryX=0.003;entryY=0.505;entryDx=0;entryDy=0;entryPerimeter=0;" parent="1" target="HjT6Npaup9nZn42_z8Ke-14" edge="1">
          <mxGeometry width="50" height="50" relative="1" as="geometry">
            <mxPoint x="115.2319587628865" y="648" as="sourcePoint" />
            <mxPoint x="125" y="588" as="targetPoint" />
          </mxGeometry>
        </mxCell>
        <mxCell id="HjT6Npaup9nZn42_z8Ke-17" value="" style="endArrow=none;html=1;rounded=0;entryX=0.998;entryY=0.433;entryDx=0;entryDy=0;entryPerimeter=0;" parent="1" target="HjT6Npaup9nZn42_z8Ke-14" edge="1">
          <mxGeometry width="50" height="50" relative="1" as="geometry">
            <mxPoint x="284.8920352659893" y="648" as="sourcePoint" />
            <mxPoint x="295" y="588" as="targetPoint" />
          </mxGeometry>
        </mxCell>
        <mxCell id="HjT6Npaup9nZn42_z8Ke-23" value="" style="endArrow=open;html=1;endSize=12;startArrow=diamondThin;startSize=14;startFill=1;edgeStyle=orthogonalEdgeStyle;align=left;verticalAlign=bottom;rounded=0;exitX=0;exitY=0.028;exitDx=0;exitDy=0;exitPerimeter=0;" parent="1" source="HjT6Npaup9nZn42_z8Ke-75" target="HjT6Npaup9nZn42_z8Ke-60" edge="1">
          <mxGeometry x="-1" y="3" relative="1" as="geometry">
            <mxPoint x="270" y="100" as="sourcePoint" />
            <mxPoint x="110" y="200" as="targetPoint" />
          </mxGeometry>
        </mxCell>
        <mxCell id="HjT6Npaup9nZn42_z8Ke-35" value="Articulo" style="swimlane;fontStyle=1;align=center;verticalAlign=top;childLayout=stackLayout;horizontal=1;startSize=26;horizontalStack=0;resizeParent=1;resizeParentMax=0;resizeLast=0;collapsible=1;marginBottom=0;whiteSpace=wrap;html=1;" parent="1" vertex="1">
          <mxGeometry x="335" y="270" width="160" height="134" as="geometry" />
        </mxCell>
        <mxCell id="HjT6Npaup9nZn42_z8Ke-36" value="&lt;div&gt;-_id : int&lt;/div&gt;&lt;div&gt;&lt;u&gt;-s_ultid : int&lt;/u&gt;&lt;br&gt;&lt;/div&gt;&lt;div&gt;-_nombre : string&lt;/div&gt;&lt;div&gt;-_precio : decimal&lt;br&gt;&lt;/div&gt;" style="text;strokeColor=none;fillColor=none;align=left;verticalAlign=top;spacingLeft=4;spacingRight=4;overflow=hidden;rotatable=0;points=[[0,0.5],[1,0.5]];portConstraint=eastwest;whiteSpace=wrap;html=1;" parent="HjT6Npaup9nZn42_z8Ke-35" vertex="1">
          <mxGeometry y="26" width="160" height="74" as="geometry" />
        </mxCell>
        <mxCell id="HjT6Npaup9nZn42_z8Ke-37" value="" style="line;strokeWidth=1;fillColor=none;align=left;verticalAlign=middle;spacingTop=-1;spacingLeft=3;spacingRight=3;rotatable=0;labelPosition=right;points=[];portConstraint=eastwest;strokeColor=inherit;" parent="HjT6Npaup9nZn42_z8Ke-35" vertex="1">
          <mxGeometry y="100" width="160" height="8" as="geometry" />
        </mxCell>
        <mxCell id="HjT6Npaup9nZn42_z8Ke-38" value="-" style="text;strokeColor=none;fillColor=none;align=left;verticalAlign=top;spacingLeft=4;spacingRight=4;overflow=hidden;rotatable=0;points=[[0,0.5],[1,0.5]];portConstraint=eastwest;whiteSpace=wrap;html=1;" parent="HjT6Npaup9nZn42_z8Ke-35" vertex="1">
          <mxGeometry y="108" width="160" height="26" as="geometry" />
        </mxCell>
        <mxCell id="HjT6Npaup9nZn42_z8Ke-39" value="&lt;i&gt;Publicacion&lt;span style=&quot;white-space: pre;&quot;&gt;&#x9;&lt;/span&gt;&lt;/i&gt;" style="swimlane;fontStyle=1;align=center;verticalAlign=top;childLayout=stackLayout;horizontal=1;startSize=26;horizontalStack=0;resizeParent=1;resizeParentMax=0;resizeLast=0;collapsible=1;marginBottom=0;whiteSpace=wrap;html=1;" parent="1" vertex="1">
          <mxGeometry x="550" y="394.5" width="240" height="204" as="geometry" />
        </mxCell>
        <mxCell id="HjT6Npaup9nZn42_z8Ke-40" value="&lt;div&gt;-_id : int&lt;/div&gt;&lt;div&gt;&lt;u&gt;-s_ultid : int&lt;/u&gt;&lt;/div&gt;&lt;div&gt;-_nombre : sting&lt;/div&gt;&lt;div&gt;-_estado : string&lt;/div&gt;&lt;div&gt;-_fecha : DateTime&lt;/div&gt;&lt;div&gt;-_articulos : List&amp;lt;Articulo&amp;gt;&lt;/div&gt;&lt;div&gt;-_cliente : Cliente&lt;/div&gt;&lt;div&gt;-_administrador: Administrador&lt;/div&gt;&lt;div&gt;-_fecha_fin : DateTime&lt;/div&gt;&lt;div&gt;&lt;br&gt;&lt;/div&gt;" style="text;strokeColor=none;fillColor=none;align=left;verticalAlign=top;spacingLeft=4;spacingRight=4;overflow=hidden;rotatable=0;points=[[0,0.5],[1,0.5]];portConstraint=eastwest;whiteSpace=wrap;html=1;" parent="HjT6Npaup9nZn42_z8Ke-39" vertex="1">
          <mxGeometry y="26" width="240" height="144" as="geometry" />
        </mxCell>
        <mxCell id="HjT6Npaup9nZn42_z8Ke-41" value="" style="line;strokeWidth=1;fillColor=none;align=left;verticalAlign=middle;spacingTop=-1;spacingLeft=3;spacingRight=3;rotatable=0;labelPosition=right;points=[];portConstraint=eastwest;strokeColor=inherit;" parent="HjT6Npaup9nZn42_z8Ke-39" vertex="1">
          <mxGeometry y="170" width="240" height="8" as="geometry" />
        </mxCell>
        <mxCell id="HjT6Npaup9nZn42_z8Ke-42" value="-" style="text;strokeColor=none;fillColor=none;align=left;verticalAlign=top;spacingLeft=4;spacingRight=4;overflow=hidden;rotatable=0;points=[[0,0.5],[1,0.5]];portConstraint=eastwest;whiteSpace=wrap;html=1;" parent="HjT6Npaup9nZn42_z8Ke-39" vertex="1">
          <mxGeometry y="178" width="240" height="26" as="geometry" />
        </mxCell>
        <mxCell id="HjT6Npaup9nZn42_z8Ke-43" value="" style="html=1;verticalAlign=bottom;endArrow=block;curved=0;rounded=0;exitX=0.717;exitY=0.535;exitDx=0;exitDy=0;exitPerimeter=0;" parent="1" source="HjT6Npaup9nZn42_z8Ke-44" target="HjT6Npaup9nZn42_z8Ke-39" edge="1">
          <mxGeometry width="80" relative="1" as="geometry">
            <mxPoint x="679.9999999999998" y="719.732" as="sourcePoint" />
            <mxPoint x="685.7804510780534" y="580.0000000000002" as="targetPoint" />
          </mxGeometry>
        </mxCell>
        <mxCell id="HjT6Npaup9nZn42_z8Ke-44" value="" style="line;strokeWidth=1;fillColor=none;align=left;verticalAlign=middle;spacingTop=-1;spacingLeft=3;spacingRight=3;rotatable=0;labelPosition=right;points=[];portConstraint=eastwest;strokeColor=inherit;" parent="1" vertex="1">
          <mxGeometry x="550" y="715.5" width="170" height="8" as="geometry" />
        </mxCell>
        <mxCell id="HjT6Npaup9nZn42_z8Ke-45" value="" style="endArrow=none;html=1;rounded=0;entryX=0.003;entryY=0.505;entryDx=0;entryDy=0;entryPerimeter=0;" parent="1" target="HjT6Npaup9nZn42_z8Ke-44" edge="1">
          <mxGeometry width="50" height="50" relative="1" as="geometry">
            <mxPoint x="550" y="755.5" as="sourcePoint" />
            <mxPoint x="560" y="695.5" as="targetPoint" />
          </mxGeometry>
        </mxCell>
        <mxCell id="HjT6Npaup9nZn42_z8Ke-46" value="" style="endArrow=none;html=1;rounded=0;entryX=0.998;entryY=0.433;entryDx=0;entryDy=0;entryPerimeter=0;" parent="1" target="HjT6Npaup9nZn42_z8Ke-44" edge="1">
          <mxGeometry width="50" height="50" relative="1" as="geometry">
            <mxPoint x="720" y="755.5" as="sourcePoint" />
            <mxPoint x="730" y="695.5" as="targetPoint" />
          </mxGeometry>
        </mxCell>
        <mxCell id="HjT6Npaup9nZn42_z8Ke-47" value="Venta" style="swimlane;fontStyle=1;align=center;verticalAlign=top;childLayout=stackLayout;horizontal=1;startSize=28;horizontalStack=0;resizeParent=1;resizeParentMax=0;resizeLast=0;collapsible=1;marginBottom=0;whiteSpace=wrap;html=1;" parent="1" vertex="1">
          <mxGeometry x="680" y="753.5" width="160" height="88" as="geometry" />
        </mxCell>
        <mxCell id="HjT6Npaup9nZn42_z8Ke-48" value="-_oferta_relampago : bool" style="text;strokeColor=none;fillColor=none;align=left;verticalAlign=top;spacingLeft=4;spacingRight=4;overflow=hidden;rotatable=0;points=[[0,0.5],[1,0.5]];portConstraint=eastwest;whiteSpace=wrap;html=1;" parent="HjT6Npaup9nZn42_z8Ke-47" vertex="1">
          <mxGeometry y="28" width="160" height="26" as="geometry" />
        </mxCell>
        <mxCell id="HjT6Npaup9nZn42_z8Ke-49" value="" style="line;strokeWidth=1;fillColor=none;align=left;verticalAlign=middle;spacingTop=-1;spacingLeft=3;spacingRight=3;rotatable=0;labelPosition=right;points=[];portConstraint=eastwest;strokeColor=inherit;" parent="HjT6Npaup9nZn42_z8Ke-47" vertex="1">
          <mxGeometry y="54" width="160" height="8" as="geometry" />
        </mxCell>
        <mxCell id="HjT6Npaup9nZn42_z8Ke-50" value="-" style="text;strokeColor=none;fillColor=none;align=left;verticalAlign=top;spacingLeft=4;spacingRight=4;overflow=hidden;rotatable=0;points=[[0,0.5],[1,0.5]];portConstraint=eastwest;whiteSpace=wrap;html=1;" parent="HjT6Npaup9nZn42_z8Ke-47" vertex="1">
          <mxGeometry y="62" width="160" height="26" as="geometry" />
        </mxCell>
        <mxCell id="HjT6Npaup9nZn42_z8Ke-51" value="Subasta" style="swimlane;fontStyle=1;align=center;verticalAlign=top;childLayout=stackLayout;horizontal=1;startSize=28;horizontalStack=0;resizeParent=1;resizeParentMax=0;resizeLast=0;collapsible=1;marginBottom=0;whiteSpace=wrap;html=1;" parent="1" vertex="1">
          <mxGeometry x="470" y="753.5" width="160" height="92" as="geometry" />
        </mxCell>
        <mxCell id="HjT6Npaup9nZn42_z8Ke-52" value="-_ofertas : List &amp;lt;Oferta&amp;gt;" style="text;strokeColor=none;fillColor=none;align=left;verticalAlign=top;spacingLeft=4;spacingRight=4;overflow=hidden;rotatable=0;points=[[0,0.5],[1,0.5]];portConstraint=eastwest;whiteSpace=wrap;html=1;" parent="HjT6Npaup9nZn42_z8Ke-51" vertex="1">
          <mxGeometry y="28" width="160" height="30" as="geometry" />
        </mxCell>
        <mxCell id="HjT6Npaup9nZn42_z8Ke-53" value="" style="line;strokeWidth=1;fillColor=none;align=left;verticalAlign=middle;spacingTop=-1;spacingLeft=3;spacingRight=3;rotatable=0;labelPosition=right;points=[];portConstraint=eastwest;strokeColor=inherit;" parent="HjT6Npaup9nZn42_z8Ke-51" vertex="1">
          <mxGeometry y="58" width="160" height="8" as="geometry" />
        </mxCell>
        <mxCell id="HjT6Npaup9nZn42_z8Ke-54" value="-" style="text;strokeColor=none;fillColor=none;align=left;verticalAlign=top;spacingLeft=4;spacingRight=4;overflow=hidden;rotatable=0;points=[[0,0.5],[1,0.5]];portConstraint=eastwest;whiteSpace=wrap;html=1;" parent="HjT6Npaup9nZn42_z8Ke-51" vertex="1">
          <mxGeometry y="66" width="160" height="26" as="geometry" />
        </mxCell>
        <mxCell id="HjT6Npaup9nZn42_z8Ke-55" value="Oferta" style="swimlane;fontStyle=1;align=center;verticalAlign=top;childLayout=stackLayout;horizontal=1;startSize=30;horizontalStack=0;resizeParent=1;resizeParentMax=0;resizeLast=0;collapsible=1;marginBottom=0;whiteSpace=wrap;html=1;" parent="1" vertex="1">
          <mxGeometry x="270" y="890" width="160" height="154" as="geometry" />
        </mxCell>
        <mxCell id="HjT6Npaup9nZn42_z8Ke-56" value="&lt;div&gt;-_id : int&lt;/div&gt;&lt;div&gt;&lt;u&gt;-s_ultid : int&lt;/u&gt;&lt;/div&gt;&lt;div&gt;-_usuario : Usuario&lt;/div&gt;&lt;div&gt;-_monto : decimal&lt;/div&gt;&lt;div&gt;-_fecha : DateTime&lt;br&gt;&lt;/div&gt;" style="text;strokeColor=none;fillColor=none;align=left;verticalAlign=top;spacingLeft=4;spacingRight=4;overflow=hidden;rotatable=0;points=[[0,0.5],[1,0.5]];portConstraint=eastwest;whiteSpace=wrap;html=1;" parent="HjT6Npaup9nZn42_z8Ke-55" vertex="1">
          <mxGeometry y="30" width="160" height="90" as="geometry" />
        </mxCell>
        <mxCell id="HjT6Npaup9nZn42_z8Ke-57" value="" style="line;strokeWidth=1;fillColor=none;align=left;verticalAlign=middle;spacingTop=-1;spacingLeft=3;spacingRight=3;rotatable=0;labelPosition=right;points=[];portConstraint=eastwest;strokeColor=inherit;" parent="HjT6Npaup9nZn42_z8Ke-55" vertex="1">
          <mxGeometry y="120" width="160" height="8" as="geometry" />
        </mxCell>
        <mxCell id="HjT6Npaup9nZn42_z8Ke-58" value="-" style="text;strokeColor=none;fillColor=none;align=left;verticalAlign=top;spacingLeft=4;spacingRight=4;overflow=hidden;rotatable=0;points=[[0,0.5],[1,0.5]];portConstraint=eastwest;whiteSpace=wrap;html=1;" parent="HjT6Npaup9nZn42_z8Ke-55" vertex="1">
          <mxGeometry y="128" width="160" height="26" as="geometry" />
        </mxCell>
        <mxCell id="HjT6Npaup9nZn42_z8Ke-60" value="&lt;i&gt;Usuario&lt;/i&gt;" style="swimlane;fontStyle=1;align=center;verticalAlign=top;childLayout=stackLayout;horizontal=1;startSize=26;horizontalStack=0;resizeParent=1;resizeParentMax=0;resizeLast=0;collapsible=1;marginBottom=0;whiteSpace=wrap;html=1;" parent="1" vertex="1">
          <mxGeometry x="50" y="394.5" width="160" height="164" as="geometry" />
        </mxCell>
        <mxCell id="HjT6Npaup9nZn42_z8Ke-61" value="&lt;div&gt;-_id : int&lt;/div&gt;&lt;div&gt;&lt;u&gt;-s_ultid : int&lt;/u&gt;&lt;br&gt;&lt;/div&gt;&lt;div&gt;-_nombre : string&lt;/div&gt;&lt;div&gt;-_apellido : string&lt;/div&gt;&lt;div&gt;-_email : sting&lt;/div&gt;&lt;div&gt;-_contrasenia : string&lt;br&gt;&lt;/div&gt;" style="text;strokeColor=none;fillColor=none;align=left;verticalAlign=top;spacingLeft=4;spacingRight=4;overflow=hidden;rotatable=0;points=[[0,0.5],[1,0.5]];portConstraint=eastwest;whiteSpace=wrap;html=1;" parent="HjT6Npaup9nZn42_z8Ke-60" vertex="1">
          <mxGeometry y="26" width="160" height="104" as="geometry" />
        </mxCell>
        <mxCell id="HjT6Npaup9nZn42_z8Ke-62" value="" style="line;strokeWidth=1;fillColor=none;align=left;verticalAlign=middle;spacingTop=-1;spacingLeft=3;spacingRight=3;rotatable=0;labelPosition=right;points=[];portConstraint=eastwest;strokeColor=inherit;" parent="HjT6Npaup9nZn42_z8Ke-60" vertex="1">
          <mxGeometry y="130" width="160" height="8" as="geometry" />
        </mxCell>
        <mxCell id="HjT6Npaup9nZn42_z8Ke-63" value="-" style="text;strokeColor=none;fillColor=none;align=left;verticalAlign=top;spacingLeft=4;spacingRight=4;overflow=hidden;rotatable=0;points=[[0,0.5],[1,0.5]];portConstraint=eastwest;whiteSpace=wrap;html=1;" parent="HjT6Npaup9nZn42_z8Ke-60" vertex="1">
          <mxGeometry y="138" width="160" height="26" as="geometry" />
        </mxCell>
        <mxCell id="HjT6Npaup9nZn42_z8Ke-64" value="Cliente" style="swimlane;fontStyle=1;align=center;verticalAlign=top;childLayout=stackLayout;horizontal=1;startSize=26;horizontalStack=0;resizeParent=1;resizeParentMax=0;resizeLast=0;collapsible=1;marginBottom=0;whiteSpace=wrap;html=1;" parent="1" vertex="1">
          <mxGeometry x="65" y="648" width="160" height="86" as="geometry" />
        </mxCell>
        <mxCell id="HjT6Npaup9nZn42_z8Ke-65" value="-_saldo : decimal" style="text;strokeColor=none;fillColor=none;align=left;verticalAlign=top;spacingLeft=4;spacingRight=4;overflow=hidden;rotatable=0;points=[[0,0.5],[1,0.5]];portConstraint=eastwest;whiteSpace=wrap;html=1;" parent="HjT6Npaup9nZn42_z8Ke-64" vertex="1">
          <mxGeometry y="26" width="160" height="26" as="geometry" />
        </mxCell>
        <mxCell id="HjT6Npaup9nZn42_z8Ke-66" value="" style="line;strokeWidth=1;fillColor=none;align=left;verticalAlign=middle;spacingTop=-1;spacingLeft=3;spacingRight=3;rotatable=0;labelPosition=right;points=[];portConstraint=eastwest;strokeColor=inherit;" parent="HjT6Npaup9nZn42_z8Ke-64" vertex="1">
          <mxGeometry y="52" width="160" height="8" as="geometry" />
        </mxCell>
        <mxCell id="HjT6Npaup9nZn42_z8Ke-67" value="-" style="text;strokeColor=none;fillColor=none;align=left;verticalAlign=top;spacingLeft=4;spacingRight=4;overflow=hidden;rotatable=0;points=[[0,0.5],[1,0.5]];portConstraint=eastwest;whiteSpace=wrap;html=1;" parent="HjT6Npaup9nZn42_z8Ke-64" vertex="1">
          <mxGeometry y="60" width="160" height="26" as="geometry" />
        </mxCell>
        <mxCell id="HjT6Npaup9nZn42_z8Ke-68" value="Administrador" style="swimlane;fontStyle=1;align=center;verticalAlign=top;childLayout=stackLayout;horizontal=1;startSize=26;horizontalStack=0;resizeParent=1;resizeParentMax=0;resizeLast=0;collapsible=1;marginBottom=0;whiteSpace=wrap;html=1;" parent="1" vertex="1">
          <mxGeometry x="265" y="648" width="160" height="86" as="geometry" />
        </mxCell>
        <mxCell id="HjT6Npaup9nZn42_z8Ke-69" value="-" style="text;strokeColor=none;fillColor=none;align=left;verticalAlign=top;spacingLeft=4;spacingRight=4;overflow=hidden;rotatable=0;points=[[0,0.5],[1,0.5]];portConstraint=eastwest;whiteSpace=wrap;html=1;" parent="HjT6Npaup9nZn42_z8Ke-68" vertex="1">
          <mxGeometry y="26" width="160" height="26" as="geometry" />
        </mxCell>
        <mxCell id="HjT6Npaup9nZn42_z8Ke-70" value="" style="line;strokeWidth=1;fillColor=none;align=left;verticalAlign=middle;spacingTop=-1;spacingLeft=3;spacingRight=3;rotatable=0;labelPosition=right;points=[];portConstraint=eastwest;strokeColor=inherit;" parent="HjT6Npaup9nZn42_z8Ke-68" vertex="1">
          <mxGeometry y="52" width="160" height="8" as="geometry" />
        </mxCell>
        <mxCell id="HjT6Npaup9nZn42_z8Ke-71" value="-" style="text;strokeColor=none;fillColor=none;align=left;verticalAlign=top;spacingLeft=4;spacingRight=4;overflow=hidden;rotatable=0;points=[[0,0.5],[1,0.5]];portConstraint=eastwest;whiteSpace=wrap;html=1;" parent="HjT6Npaup9nZn42_z8Ke-68" vertex="1">
          <mxGeometry y="60" width="160" height="26" as="geometry" />
        </mxCell>
        <mxCell id="HjT6Npaup9nZn42_z8Ke-72" value="Sistema" style="swimlane;fontStyle=1;align=center;verticalAlign=top;childLayout=stackLayout;horizontal=1;startSize=26;horizontalStack=0;resizeParent=1;resizeParentMax=0;resizeLast=0;collapsible=1;marginBottom=0;whiteSpace=wrap;html=1;" parent="1" vertex="1">
          <mxGeometry x="200" y="20" width="380" height="160" as="geometry" />
        </mxCell>
        <mxCell id="HjT6Npaup9nZn42_z8Ke-73" value="&lt;div&gt;-_usuarios : List&amp;lt;Usuario&amp;gt;&lt;/div&gt;&lt;div&gt;-_articulos : List&amp;lt;Articulos&amp;gt;&lt;/div&gt;&lt;div&gt;-_publicaciones : List&amp;lt;Publicacion&amp;gt;&lt;br&gt;&lt;/div&gt;" style="text;strokeColor=none;fillColor=none;align=left;verticalAlign=top;spacingLeft=4;spacingRight=4;overflow=hidden;rotatable=0;points=[[0,0.5],[1,0.5]];portConstraint=eastwest;whiteSpace=wrap;html=1;" parent="HjT6Npaup9nZn42_z8Ke-72" vertex="1">
          <mxGeometry y="26" width="380" height="54" as="geometry" />
        </mxCell>
        <mxCell id="HjT6Npaup9nZn42_z8Ke-74" value="" style="line;strokeWidth=1;fillColor=none;align=left;verticalAlign=middle;spacingTop=-1;spacingLeft=3;spacingRight=3;rotatable=0;labelPosition=right;points=[];portConstraint=eastwest;strokeColor=inherit;" parent="HjT6Npaup9nZn42_z8Ke-72" vertex="1">
          <mxGeometry y="80" width="380" height="8" as="geometry" />
        </mxCell>
        <mxCell id="HjT6Npaup9nZn42_z8Ke-75" value="&lt;div&gt;+ListarClientes()&lt;/div&gt;&lt;div&gt;+ListarArticulosPorCategoria(string categoria)&lt;/div&gt;&lt;div&gt;+AltaArticulo(Articulo articulo)&lt;/div&gt;&lt;div&gt;+ListarPublicacionesPorFechas(DateTime desde, DateTime hasta)&lt;/div&gt;" style="text;strokeColor=none;fillColor=none;align=left;verticalAlign=top;spacingLeft=4;spacingRight=4;overflow=hidden;rotatable=0;points=[[0,0.5],[1,0.5]];portConstraint=eastwest;whiteSpace=wrap;html=1;" parent="HjT6Npaup9nZn42_z8Ke-72" vertex="1">
          <mxGeometry y="88" width="380" height="72" as="geometry" />
        </mxCell>
        <mxCell id="HjT6Npaup9nZn42_z8Ke-77" value="" style="endArrow=open;html=1;endSize=12;startArrow=diamondThin;startSize=14;startFill=1;edgeStyle=orthogonalEdgeStyle;align=left;verticalAlign=bottom;rounded=0;entryX=0.001;entryY=0.148;entryDx=0;entryDy=0;entryPerimeter=0;" parent="1" source="HjT6Npaup9nZn42_z8Ke-36" target="HjT6Npaup9nZn42_z8Ke-40" edge="1">
          <mxGeometry x="-1" y="3" relative="1" as="geometry">
            <mxPoint x="510" y="607" as="sourcePoint" />
            <mxPoint x="370" y="734" as="targetPoint" />
          </mxGeometry>
        </mxCell>
        <mxCell id="HjT6Npaup9nZn42_z8Ke-78" value="" style="endArrow=open;html=1;endSize=12;startArrow=diamondThin;startSize=14;startFill=1;edgeStyle=orthogonalEdgeStyle;align=left;verticalAlign=bottom;rounded=0;exitX=0.566;exitY=1.005;exitDx=0;exitDy=0;exitPerimeter=0;" parent="1" source="HjT6Npaup9nZn42_z8Ke-75" target="HjT6Npaup9nZn42_z8Ke-35" edge="1">
          <mxGeometry x="-1" y="3" relative="1" as="geometry">
            <mxPoint x="340" y="103" as="sourcePoint" />
            <mxPoint x="379.9999999999998" y="200" as="targetPoint" />
          </mxGeometry>
        </mxCell>
        <mxCell id="HjT6Npaup9nZn42_z8Ke-79" value="" style="endArrow=open;html=1;endSize=12;startArrow=diamondThin;startSize=14;startFill=1;edgeStyle=orthogonalEdgeStyle;align=left;verticalAlign=bottom;rounded=0;exitX=1;exitY=0.041;exitDx=0;exitDy=0;exitPerimeter=0;" parent="1" source="HjT6Npaup9nZn42_z8Ke-75" target="HjT6Npaup9nZn42_z8Ke-39" edge="1">
          <mxGeometry x="-1" y="3" relative="1" as="geometry">
            <mxPoint x="640" y="110" as="sourcePoint" />
            <mxPoint x="670" y="200" as="targetPoint" />
          </mxGeometry>
        </mxCell>
        <mxCell id="HjT6Npaup9nZn42_z8Ke-80" value="" style="endArrow=open;endFill=1;endSize=12;html=1;rounded=0;" parent="1" source="HjT6Npaup9nZn42_z8Ke-55" target="HjT6Npaup9nZn42_z8Ke-51" edge="1">
          <mxGeometry width="160" relative="1" as="geometry">
            <mxPoint x="270" y="881.5" as="sourcePoint" />
            <mxPoint x="430" y="881.5" as="targetPoint" />
            <Array as="points">
              <mxPoint x="550" y="967" />
            </Array>
          </mxGeometry>
        </mxCell>
        <mxCell id="HjT6Npaup9nZn42_z8Ke-82" value="1" style="text;html=1;align=center;verticalAlign=middle;resizable=0;points=[];autosize=1;strokeColor=none;fillColor=none;" parent="1" vertex="1">
          <mxGeometry x="495" y="300" width="30" height="30" as="geometry" />
        </mxCell>
        <mxCell id="HjT6Npaup9nZn42_z8Ke-83" value="1" style="text;html=1;align=center;verticalAlign=middle;resizable=0;points=[];autosize=1;strokeColor=none;fillColor=none;" parent="1" vertex="1">
          <mxGeometry x="420" y="180" width="30" height="30" as="geometry" />
        </mxCell>
        <mxCell id="HjT6Npaup9nZn42_z8Ke-84" value="1" style="text;html=1;align=center;verticalAlign=middle;resizable=0;points=[];autosize=1;strokeColor=none;fillColor=none;" parent="1" vertex="1">
          <mxGeometry x="170" y="80" width="30" height="30" as="geometry" />
        </mxCell>
        <mxCell id="HjT6Npaup9nZn42_z8Ke-85" value="1" style="text;html=1;align=center;verticalAlign=middle;resizable=0;points=[];autosize=1;strokeColor=none;fillColor=none;" parent="1" vertex="1">
          <mxGeometry x="580" y="80" width="30" height="30" as="geometry" />
        </mxCell>
        <mxCell id="HjT6Npaup9nZn42_z8Ke-86" value="1...*" style="text;html=1;align=center;verticalAlign=middle;resizable=0;points=[];autosize=1;strokeColor=none;fillColor=none;" parent="1" vertex="1">
          <mxGeometry x="80" y="364.5" width="40" height="30" as="geometry" />
        </mxCell>
        <mxCell id="HjT6Npaup9nZn42_z8Ke-87" value="1...*" style="text;html=1;align=center;verticalAlign=middle;resizable=0;points=[];autosize=1;strokeColor=none;fillColor=none;" parent="1" vertex="1">
          <mxGeometry x="420" y="240" width="40" height="30" as="geometry" />
        </mxCell>
        <mxCell id="HjT6Npaup9nZn42_z8Ke-88" value="1...*" style="text;html=1;align=center;verticalAlign=middle;resizable=0;points=[];autosize=1;strokeColor=none;fillColor=none;" parent="1" vertex="1">
          <mxGeometry x="620" y="364.5" width="40" height="30" as="geometry" />
        </mxCell>
        <mxCell id="HjT6Npaup9nZn42_z8Ke-89" value="1...*" style="text;html=1;align=center;verticalAlign=middle;resizable=0;points=[];autosize=1;strokeColor=none;fillColor=none;" parent="1" vertex="1">
          <mxGeometry x="510" y="440" width="40" height="30" as="geometry" />
        </mxCell>
        <mxCell id="HjT6Npaup9nZn42_z8Ke-90" value="1...*" style="text;html=1;align=center;verticalAlign=middle;resizable=0;points=[];autosize=1;strokeColor=none;fillColor=none;" parent="1" vertex="1">
          <mxGeometry x="550" y="845.5" width="40" height="30" as="geometry" />
        </mxCell>
        <mxCell id="HjT6Npaup9nZn42_z8Ke-93" value="" style="endArrow=open;html=1;endSize=12;startArrow=diamondThin;startSize=14;startFill=1;edgeStyle=orthogonalEdgeStyle;align=left;verticalAlign=bottom;rounded=0;entryX=-0.001;entryY=0.676;entryDx=0;entryDy=0;entryPerimeter=0;exitX=1;exitY=0.75;exitDx=0;exitDy=0;" parent="1" source="HjT6Npaup9nZn42_z8Ke-60" target="HjT6Npaup9nZn42_z8Ke-40" edge="1">
          <mxGeometry x="-1" y="3" relative="1" as="geometry">
            <mxPoint x="389.55" y="464" as="sourcePoint" />
            <mxPoint x="389.55" y="550" as="targetPoint" />
          </mxGeometry>
        </mxCell>
        <mxCell id="HjT6Npaup9nZn42_z8Ke-94" value="1...*" style="text;html=1;align=center;verticalAlign=middle;resizable=0;points=[];autosize=1;strokeColor=none;fillColor=none;" parent="1" vertex="1">
          <mxGeometry x="510" y="520" width="40" height="30" as="geometry" />
        </mxCell>
        <mxCell id="HjT6Npaup9nZn42_z8Ke-95" value="1" style="text;html=1;align=center;verticalAlign=middle;resizable=0;points=[];autosize=1;strokeColor=none;fillColor=none;" parent="1" vertex="1">
          <mxGeometry x="210" y="520" width="30" height="30" as="geometry" />
        </mxCell>
        <mxCell id="HjT6Npaup9nZn42_z8Ke-96" value="1" style="text;html=1;align=center;verticalAlign=middle;resizable=0;points=[];autosize=1;strokeColor=none;fillColor=none;" parent="1" vertex="1">
          <mxGeometry x="430" y="940" width="30" height="30" as="geometry" />
        </mxCell>
        <mxCell id="HjT6Npaup9nZn42_z8Ke-97" value="" style="endArrow=open;endFill=1;endSize=12;html=1;rounded=0;" parent="1" source="HjT6Npaup9nZn42_z8Ke-55" target="HjT6Npaup9nZn42_z8Ke-64" edge="1">
          <mxGeometry width="160" relative="1" as="geometry">
            <mxPoint x="360" y="900" as="sourcePoint" />
            <mxPoint x="480" y="822" as="targetPoint" />
            <Array as="points">
              <mxPoint x="145" y="967" />
            </Array>
          </mxGeometry>
        </mxCell>
        <mxCell id="HjT6Npaup9nZn42_z8Ke-98" value="1" style="text;html=1;align=center;verticalAlign=middle;resizable=0;points=[];autosize=1;strokeColor=none;fillColor=none;" parent="1" vertex="1">
          <mxGeometry x="145" y="734" width="30" height="30" as="geometry" />
        </mxCell>
        <mxCell id="HjT6Npaup9nZn42_z8Ke-99" value="1...*" style="text;html=1;align=center;verticalAlign=middle;resizable=0;points=[];autosize=1;strokeColor=none;fillColor=none;" parent="1" vertex="1">
          <mxGeometry x="230" y="940" width="40" height="30" as="geometry" />
        </mxCell>
      </root>
    </mxGraphModel>
  </diagram>
</mxfile>
